<?xml version="1.0" encoding="utf-8"?><svg viewBox="0 0 24 24" xmlns="http://www.w3.org/2000/svg" xmlns:xlink="http://www.w3.org/1999/xlink"><style>:root>svg{display:none}:root>svg:target{display:block}</style><svg viewBox="0 0 12 12" id="product-card-plus" xmlns="http://www.w3.org/2000/svg"><path d="M6 1v5m0 5V6m0 0h5M6 6H1"/></svg><svg viewBox="0 0 12 12" id="rating-active" xmlns="http://www.w3.org/2000/svg"><path d="M6 1v5m0 5V6m0 0h5M6 6H1"/></svg><svg viewBox="0 0 24 24" id="shopping-card" xmlns="http://www.w3.org/2000/svg"><g clip-path="url(#ca)" fill-rule="evenodd" clip-rule="evenodd"><path d="M7 21a2 2 0 1 1 4 0 2 2 0 0 1-4 0Zm11 0a2 2 0 1 1 4 0 2 2 0 0 1-4 0ZM0 1a1 1 0 0 1 1-1h4a1 1 0 0 1 .98.804L6.82 5H23a1 1 0 0 1 .982 1.187l-1.601 8.398A3 3 0 0 1 19.39 17h-9.7a3 3 0 0 1-2.99-2.414L5.03 6.239a.994.994 0 0 1-.017-.084L4.18 2H1a1 1 0 0 1-1-1Zm7.22 6 1.44 7.195a1 1 0 0 0 1 .805h9.76a1 1 0 0 0 .998-.802L21.792 7H7.221Z"/></g><defs><clipPath id="ca"><path d="M0 0h24v24H0z"/></clipPath></defs></svg></svg>